<?xml version="1.0" encoding="UTF-8" standalone="no" ?>
<!DOCTYPE svg PUBLIC "-//W3C//DTD SVG 1.1//EN" "http://www.w3.org/Graphics/SVG/1.1/DTD/svg11.dtd">
<svg xmlns="http://www.w3.org/2000/svg" xmlns:xlink="http://www.w3.org/1999/xlink" version="1.1" width="100%"
    height="100%" viewBox="120 410 320 200" xml:space="preserve">
    <desc>Created with Fabric.js 3.6.3</desc>
    <defs>
    </defs>

    <g transform="matrix(0.9323165474109699 0 0 0.9323165474109699 279.2252273940454 512.012312418764)" id="logo-logo">
        <g style="" paint-order="stroke">
            <g transform="matrix(0.2335 0 0 -0.2335 -1.351600000000019 -14.337327635384042)">
                <path
                    style="stroke: none; stroke-width: 1; stroke-dasharray: none; stroke-linecap: butt; stroke-dashoffset: 0; stroke-linejoin: miter; stroke-miterlimit: 4; fill: rgb(36,132,132); fill-rule: nonzero; opacity: 1;"
                    paint-order="stroke" transform=" translate(-1619.2037636895634, -1679.2385268292096)"
                    d="m 2307.5 1582.44 c 0 -12.34 -9.98 -22.33 -22.31 -22.33 c -9.65 -0.35 -19.15 6.94 -21.51 16.22 c -11.75 53.58 -60.4 124.45 -106.12 154.65 c -9.86 7.4 -23.85 5.29 -31.25 -4.59 c -0.24 -0.35 -0.82 -1.06 -1.07 -1.53 c -6.1 -9.63 -3.64 -22.91 5.66 -29.61 c 20.67 -13.98 50.05 -46.18 62.27 -68.05 c 71.67 -115.98 35.74 -268.14 -80.26 -339.85 c -0.47 -0.34 -1.52 -0.81 -2 -1.03 c -11.05 -5.43 -24.44 -0.83 -29.84 10.21 c -5.06 10.1 -1.3 22.92 8.33 28.8 c 29.14 15.74 64.76 55.81 77.08 86.6 c 5.19 11.16 0.38 24.43 -10.81 29.61 c -0.7 0.36 -1.86 0.82 -2.56 1.05 c -10.46 3.53 -22.56 -1.75 -27.04 -11.86 c -21.98 -53 -85.67 -93.66 -143 -91.06 h -111.42 c -12.32 0 -22.2 9.97 -22.2 22.31 c 0 12.22 9.88 22.21 22.2 22.21 h 111.42 c 62.52 0 113.15 50.65 113.15 113.16 c 0 62.53 -50.63 113.17 -113.15 113.17 c -15.76 0.94 -41.14 -5.63 -54.53 -13.97 c -6.94 -4.36 -19.52 -6.71 -27.63 -5.07 c -24.31 3.41 -41.35 25.86 -38.07 50.31 c 8.22 40.76 -7.05 101.52 -33.48 133.72 c -6.83 9.05 -5.41 22.21 3.04 29.61 c 0.35 0.47 1.31 1.18 1.77 1.53 c 9.99 7.29 23.96 5.05 31.26 -4.94 c 32.78 -39.83 51.7 -115.27 41.59 -166.04 c 17.28 10.7 50.29 19.74 70.64 19.39 c 87.08 2.94 160.05 -65.22 163.1 -152.3 c 0.12 -11.05 9.18 -20.57 20.22 -21.38 c 12.33 -1.07 23.15 7.99 24.21 20.21 c 0.11 0.7 0.11 1.99 0.11 2.7 c -3.87 111.75 -97.53 199.19 -209.18 195.3 c -6.21 -0.11 -17.98 -1.17 -23.96 -2.22 c -6.82 99.88 -89.55 202 -185.77 229.26 c -11.08 3.53 -17.53 15.39 -14.71 26.56 c 0.12 0.47 0.34 1.29 0.47 1.65 c 3.88 11.75 16.57 18.09 28.2 14.22 c 96.11 -26.44 189.44 -127.03 208.59 -224.81 c 19.5 0.36 54.06 -5.75 72.38 -12.57 c 10.81 -3.75 23.05 1.76 27.51 12.34 c 4.82 11.28 -0.36 24.44 -11.75 29.26 c -0.36 0.23 -1.31 0.47 -1.66 0.7 c -13.16 4.7 -38.66 10.7 -52.52 12.23 c -65.81 189.19 -272.64 289.2 -461.83 223.38 c -67.1 -18.91 -152.53 -86.48 -186.5 -147.36 c -26.44 6.82 -75.08 9.64 -102.11 6 c -12.23 -1.29 -21.27 -12.1 -20.1 -24.44 c 0.12 -0.35 0.24 -1.18 0.24 -1.53 c 1.88 -11.52 12.69 -19.74 24.2 -18.45 c 32.56 4.82 88.73 -1.65 119.28 -13.63 c 47.47 105.4 178.03 183.2 293.31 174.86 c 0.37 0 1.17 -0.11 1.65 -0.11 c 12.21 -1.3 21.14 -12.23 19.86 -24.46 c -1.06 -11.51 -11.28 -20.44 -22.79 -19.97 c -39.5 3.29 -103.31 -11.75 -137.14 -32.43 c -10.81 -5.76 -14.93 -19.28 -9.06 -30.2 c 0.24 -0.35 0.7 -1.3 0.95 -1.65 c 6.23 -9.64 19.15 -12.92 29.25 -7.4 c 62.52 37.84 162.65 35.95 223.76 -4.24 c 0.58 -0.23 1.51 -0.94 1.99 -1.28 c 9.99 -7.29 11.98 -21.27 4.7 -31.14 c -6.57 -9.17 -19.63 -11.75 -29.13 -6 c -87.91 51.36 -200.84 21.85 -252.32 -66.04 c -14.45 -21.86 -26.2 -63.69 -25.14 -89.91 c 0.35 -10.8 -6.23 -25.49 -14.69 -32.31 c -18.22 -16.45 -46.43 -15.16 -62.99 3.06 c 0 0.11 -0.12 0.24 -0.12 0.24 c -8.34 9.16 -22.44 9.74 -31.49 1.52 c -0.83 -0.7 -2 -2 -2.59 -2.82 c -6.69 -8.22 -6.22 -21.04 1.06 -28.67 c 0 -0.12 0.12 -0.12 0.12 -0.25 c 33.13 -36.41 89.54 -39.12 125.97 -6.09 c 16.92 13.63 30.21 42.88 29.26 64.51 c -0.23 9.75 2.47 27.14 5.41 36.42 c 0.35 1.07 1.05 2.95 1.64 3.88 c 5.53 11.04 19.05 15.4 29.97 9.75 c 9.4 -4.57 14.45 -16.09 11.27 -26.09 c -1.99 -6.22 -3.87 -18.09 -3.75 -24.66 c 1.42 -32.56 -18.44 -76.39 -43.82 -96.84 c -54.66 -49.59 -139.26 -45.48 -188.97 9.17 c -23.86 26.31 -64.63 28.32 -90.95 4.46 c -26.32 -23.97 -28.33 -64.63 -4.35 -90.96 c 10.1 -12.45 31.61 -22.09 47.58 -21.15 h 100.6 c 12.22 0 22.21 -9.98 22.21 -22.2 c 0 -12.35 -9.99 -22.34 -22.21 -22.34 h -100.6 c -5.52 -0.1 -15.74 0.83 -21.14 2.12 c -59 11.63 -97.42 68.98 -85.67 128.09 c 11.75 59 69.1 97.3 128.09 85.67 c 10.33 -2.34 21.5 3.87 25.15 13.87 c 4.46 11.52 -1.3 24.32 -12.82 28.79 c -0.94 0.35 -2.7 0.82 -3.64 1.05 c -30.2 7.87 -77.91 0.47 -104.23 -16.32 c -9.64 -5.42 -22.45 -2.6 -28.79 6.34 c -0.47 0.58 -1.18 1.76 -1.52 2.46 c -6 10.7 -2.12 24.33 8.68 30.2 c 76.75 45.25 184.62 27.27 242.67 -40.19 c -1.99 48.06 25.04 116.46 59.47 149.95 c 7.75 8.47 7.63 21.86 -0.13 30.21 c -8.34 9.04 -22.44 9.51 -31.5 1.17 c -0.46 -0.23 -1.05 -0.94 -1.4 -1.41 c -22.33 -22.21 -49.47 -68.98 -57.7 -99.54 c -117.98 63.82 -265.22 19.86 -329.03 -98.12 c -44.77 -74.62 -37.26 -189.31 16.8 -257.49 c 6.81 -9.27 5.17 -22.66 -3.53 -29.94 c -0.35 -0.37 -1.17 -0.95 -1.52 -1.18 c -9.99 -7.28 -23.98 -4.93 -31.14 5.04 c -11.52 14.81 -28.09 45.02 -34.32 62.64 c -58.287 147.72 14.23 314.59 161.82 372.87 c 10.81 4.12 16.69 16.34 13.04 27.38 c -3.64 11.76 -16.21 18.34 -27.97 14.57 c -0.35 -0.11 -1.06 -0.34 -1.41 -0.46 c -106.23 -36.08 -198.829 -155.24 -207.52 -266.99 c -1.184 -11.06 -11.051 -19.74 -22.094 -19.51 c -0.711 0 -2.117 0 -2.824 0.11 c -12.223 1.65 -20.805 12.82 -19.266 24.92 c 0 0.58 0.227 1.65 0.227 2.23 c 27.386 206.13 216.697 351.01 422.817 323.76 c 33.26 49.93 111.05 110.81 167.46 131.01 c 207.29 87.67 446.19 -9.28 533.86 -216.45 c 113.28 -19.39 225.39 -125.28 251.12 -237.26 c 0.6 -1.52 0.93 -4.46 0.93 -5.99"
                    stroke-linecap="round" />
            </g>
            <g transform="matrix(0.2335 0 0 -0.2335 0 31.210072364615883)">
                <path
                    style="stroke: none; stroke-width: 1; stroke-dasharray: none; stroke-linecap: butt; stroke-dashoffset: 0; stroke-linejoin: miter; stroke-miterlimit: 4; fill: rgb(36,132,132); fill-rule: nonzero; opacity: 1;"
                    paint-order="stroke" transform=" translate(-1624.992461292936, -1484.1703592177953)"
                    d="m 2319.14 1492.89 c -2.11 -183.55 -152.52 -331.96 -336.07 -331.62 h -678.54 c -186.36 -2.81 -352.768 143.84 -373.444 329.15 c -0.129 0.71 -0.242 2 -0.242 2.83 c 0 12.22 9.996 22.21 22.332 22.21 c 11.043 0.23 20.91 -8.46 22.094 -19.51 c 18.324 -163.33 164.98 -292.6 329.26 -290.14 h 215.41 c 12.34 0 22.33 9.98 22.33 22.31 c 0 12.35 -9.99 22.35 -22.33 22.35 h -215.41 c -50.64 -2.94 -127.61 21.73 -167.09 53.58 c -0.47 0.35 -1.18 0.94 -1.54 1.18 c -9.39 7.99 -10.45 22.09 -2.46 31.49 c 7.28 8.82 20.68 10.46 29.85 3.64 c 33.49 -26.92 98.47 -47.82 141.24 -45.35 h 80.62 c 12.35 0 22.33 9.98 22.33 22.31 c 0 12.35 -9.98 22.35 -22.33 22.35 h -80.62 c -32.55 -1.89 -82.96 13.26 -109.16 32.78 c -91.31 60.39 -116.45 183.31 -56.06 274.62 c 0.35 0.59 1.18 1.76 1.65 2.24 c 8.11 9.39 22.09 10.33 31.5 2.35 c 8.45 -7.06 10.22 -20.11 3.99 -29.15 c -46.77 -70.75 -27.27 -166.05 43.48 -212.82 c 20.33 -15.16 59.34 -26.91 84.6 -25.5 h 261.59 c 12.35 0 22.33 9.98 22.33 22.32 c 0 12.35 -9.98 22.33 -22.33 22.33 h -71.8 c -12.34 0 -22.32 9.99 -22.32 22.34 c 0 12.22 9.98 22.2 22.32 22.2 h 488.75 c 13.26 0 23.97 10.82 23.97 23.97 c 0 13.29 -10.71 23.98 -23.97 23.98 c -3.29 0.23 -8.7 -1.17 -11.53 -2.94 c -20.79 -13.04 -58.75 -19.98 -82.72 -15.27 c -73.21 10.1 -124.33 77.67 -114.23 150.88 c 7.16 52.06 -29.26 100.12 -81.32 107.29 c -19.62 3.88 -49.48 -2.82 -65.45 -14.8 c -8.58 -6 -21.03 -4.59 -28.21 3.05 c -0.82 0.7 -2.12 2.35 -2.71 3.3 c -6.69 10.22 -3.86 24.09 6.35 30.9 c 23.5 17.51 67.35 27.49 96.13 21.74 c 76.49 -10.58 129.98 -81.09 119.39 -157.59 c -6.82 -48.76 27.27 -93.78 76.15 -100.6 c 15.98 -3.15 41.25 1.54 55.11 10.23 c 8.11 5.06 23.51 8.94 33.04 8.47 c 37.83 0 68.5 -30.67 68.5 -68.64 c 0 -37.83 -30.67 -68.51 -68.5 -68.51 h -327.76 c -12.32 0 -22.33 -9.98 -22.33 -22.33 c 0 -12.34 10.01 -22.32 22.33 -22.32 h 127.16 c 12.34 0 22.32 -9.99 22.32 -22.21 c 0 -12.34 -9.98 -22.31 -22.32 -22.31 h -308.13 c -12.33 0 -22.31 -10 -22.31 -22.35 c 0 -12.33 9.98 -22.31 22.31 -22.31 h 508.73 c 9.03 -0.24 25.97 1.28 34.78 3.05 c 11.15 2.11 22.44 -5.04 25.37 -15.97 c 0.12 -0.49 0.35 -1.54 0.47 -2.13 c 2.12 -12.1 -5.99 -23.74 -18.08 -25.85 c -10.82 -2.12 -31.52 -3.99 -42.54 -3.64 h -373.94 c -12.34 0 -22.33 -10 -22.33 -22.35 c 0 -12.33 9.99 -22.31 22.33 -22.31 h 373.94 c 159.22 -0.23 289.64 128.43 291.53 287.67 c 0.14 12.21 10.12 22.09 22.22 21.98 h 0.35 c 12.34 -0.12 22.08 -10.23 21.97 -22.57"
                    stroke-linecap="round" />
            </g>
        </g>
    </g>
</svg>