<?xml version="1.0" standalone="no"?>
<!DOCTYPE svg PUBLIC "-//W3C//DTD SVG 20010904//EN"
 "http://www.w3.org/TR/2001/REC-SVG-20010904/DTD/svg10.dtd">
<svg version="1.0" xmlns="http://www.w3.org/2000/svg"
 width="340.000000pt" height="340.000000pt" viewBox="0 0 340.000000 340.000000"
 preserveAspectRatio="xMidYMid meet">
<metadata>
Created by potrace 1.11, written by Peter Selinger 2001-2013
</metadata>
<g transform="translate(0.000000,340.000000) scale(0.100000,-0.100000)"
fill="#000000" stroke="none">
<path d="M1819 2756 c-2 -2 -38 -6 -79 -9 -129 -11 -283 -65 -392 -138 -69
-46 -218 -183 -218 -200 0 -4 -35 -7 -77 -6 -207 5 -374 -46 -525 -161 -79
-60 -110 -91 -170 -170 -79 -104 -136 -239 -153 -358 -6 -46 -4 -53 15 -67 43
-30 71 -5 86 78 4 22 8 46 10 54 7 38 52 134 92 196 80 125 223 243 333 276
39 12 43 11 60 -10 28 -34 11 -59 -69 -100 -166 -85 -288 -244 -331 -431 -18
-81 -8 -236 22 -322 53 -153 116 -221 158 -169 19 24 17 40 -12 82 -25 36 -53
104 -68 163 -12 50 -16 178 -6 227 19 97 83 206 165 283 142 131 336 172 521
109 l83 -28 38 75 c46 94 92 150 121 150 53 -1 66 -44 27 -92 -65 -80 -105
-181 -119 -300 -1 -4 -13 4 -28 18 -105 98 -284 135 -423 89 -91 -30 -122 -72
-80 -110 18 -17 22 -16 92 9 91 32 191 33 214 1 33 -44 4 -74 -69 -74 -85 1
-134 -17 -187 -71 -68 -67 -86 -141 -60 -234 17 -61 68 -118 131 -145 45 -20
68 -22 191 -22 148 0 168 6 168 46 0 42 -24 50 -154 51 -145 0 -175 6 -208 42
-25 27 -46 76 -42 100 1 6 2 21 3 32 3 46 83 106 139 103 6 0 21 -1 31 -2 11
0 43 -21 71 -45 98 -84 192 -109 295 -79 124 37 196 130 210 271 3 29 6 56 6
60 4 26 -4 44 -26 52 -49 19 -66 -8 -80 -120 -8 -68 -33 -109 -86 -145 -68
-44 -158 -40 -226 11 -36 28 -43 62 -17 88 20 21 22 20 69 -9 22 -13 55 -25
73 -25 45 0 92 46 93 92 5 211 172 383 381 393 70 4 141 -10 195 -38 44 -23
80 -22 93 3 18 33 2 59 -51 85 -131 67 -282 65 -456 -6 -26 -10 -34 -10 -47 0
-24 20 -20 66 8 84 42 28 150 58 226 64 93 7 125 24 115 61 -9 38 -21 43 -94
40 -130 -3 -259 -49 -376 -132 -89 -64 -151 -135 -210 -243 0 -1 -28 4 -60 11
-33 8 -94 14 -135 15 -91 2 -107 6 -115 31 -9 28 11 57 42 64 32 7 180 0 205
-9 12 -5 21 2 32 23 39 75 208 217 317 266 124 57 319 85 439 65 85 -15 103
-20 181 -50 134 -52 247 -137 335 -251 46 -59 114 -181 114 -204 0 -8 12 -16
28 -20 82 -18 103 -26 116 -45 11 -16 12 -27 4 -45 -13 -27 -33 -34 -68 -21
-14 5 -45 11 -70 14 -25 3 -51 7 -59 8 -8 1 -24 31 -36 68 -56 167 -228 346
-390 406 -72 27 -108 17 -103 -30 2 -18 10 -35 18 -39 8 -5 49 -24 91 -44 145
-68 280 -240 312 -397 l12 -62 76 -2 c41 -1 98 -10 127 -19 68 -23 159 -84
200 -136 50 -61 92 -158 98 -227 6 -57 5 -62 -19 -78 -20 -13 -30 -14 -46 -5
-12 6 -22 16 -22 23 -14 149 -86 261 -204 316 -72 34 -183 40 -251 13 l-52
-19 -4 86 c-10 175 -101 332 -164 281 -21 -18 -17 -46 11 -94 37 -64 57 -142
57 -221 -1 -85 12 -121 49 -141 31 -16 66 -13 123 11 110 46 251 -8 307 -117
44 -87 26 -207 -41 -277 -64 -66 -96 -75 -265 -79 -82 -1 -160 -5 -172 -7 -33
-7 -42 -53 -16 -75 17 -13 46 -16 179 -15 103 1 173 6 199 15 79 26 157 90
197 162 49 86 131 43 86 -46 -18 -36 -104 -128 -155 -168 -30 -23 -29 -54 1
-73 29 -19 46 -13 114 42 63 52 120 132 154 220 77 196 28 420 -127 576 -81
81 -85 93 -43 125 24 19 62 -3 130 -77 62 -67 106 -138 138 -224 25 -66 45
-82 81 -63 34 17 29 66 -15 162 -42 89 -77 137 -162 221 -79 76 -163 128 -267
164 -78 27 -80 29 -107 82 -135 267 -433 464 -720 476 -36 1 -67 4 -71 7 -3 2
-8 2 -10 0z"/>
<path d="M1750 2161 c-81 -26 -119 -65 -100 -100 16 -31 44 -34 89 -10 73 37
172 23 233 -33 48 -46 62 -85 65 -191 2 -83 7 -108 29 -153 54 -110 166 -172
287 -160 87 8 87 9 87 16 0 13 61 20 81 10 24 -13 25 -62 3 -81 -13 -11 -120
-14 -564 -14 -586 0 -580 0 -580 -50 0 -37 23 -47 117 -47 111 0 133 -8 133
-47 0 -20 -7 -34 -21 -41 -14 -8 -122 -10 -347 -8 -309 3 -330 4 -373 24 -81
38 -138 94 -177 174 -39 80 -38 189 2 277 38 84 25 129 -34 116 -17 -4 -61
-79 -79 -133 -56 -177 24 -387 189 -492 70 -45 140 -61 280 -63 69 -2 130 -3
137 -4 22 -2 34 -38 21 -65 -12 -29 -8 -28 -176 -27 -139 2 -224 22 -312 76
-54 33 -67 36 -91 16 -51 -41 14 -103 166 -157 80 -28 80 -28 370 -31 160 -2
300 -6 312 -8 33 -8 42 -53 15 -76 -19 -15 -50 -16 -314 -14 -267 2 -300 4
-368 24 -99 29 -205 81 -255 125 -22 20 -43 36 -47 36 -17 0 -129 155 -162
222 -36 73 -66 172 -66 215 0 27 -40 56 -64 47 -40 -16 -42 -73 -4 -194 84
-267 301 -472 585 -552 77 -21 85 -22 893 -22 448 0 844 3 879 8 232 26 451
184 557 402 84 171 100 366 31 364 -29 -1 -46 -28 -52 -84 -8 -74 -11 -90 -32
-156 -51 -166 -192 -319 -353 -384 -25 -10 -54 -22 -65 -26 -51 -21 -109 -24
-543 -26 -423 -1 -465 0 -484 16 -24 19 -20 63 7 74 9 3 217 6 463 6 471 1
487 2 503 46 8 24 -24 69 -42 58 -5 -3 -279 -6 -609 -6 -638 -1 -630 -1 -630
47 0 48 8 49 387 50 380 0 372 -1 373 50 0 41 -17 45 -181 45 -167 0 -189 6
-189 50 0 46 22 48 411 48 249 0 378 3 401 11 57 19 98 76 98 136 0 57 -33
110 -83 134 -53 26 -55 26 -142 -3 -38 -13 -81 -22 -95 -19 -14 2 -36 6 -50 8
-34 6 -70 35 -104 83 -28 39 -30 49 -31 140 -1 113 -20 165 -83 234 -58 62
-120 91 -206 94 -39 2 -82 0 -96 -5z"/>
</g>
</svg>
