<?xml version="1.0" encoding="UTF-8" standalone="no" ?>
<!DOCTYPE svg PUBLIC "-//W3C//DTD SVG 1.1//EN" "http://www.w3.org/Graphics/SVG/1.1/DTD/svg11.dtd">
<svg xmlns="http://www.w3.org/2000/svg" xmlns:xlink="http://www.w3.org/1999/xlink" version="1.1" width="100%"
	height="100%" viewBox="120 410 1050 210" xml:space="preserve">
	<desc>Created with Fabric.js 3.6.3</desc>
	<defs>
	</defs>
	<g transform="matrix(1.9692780337941629 0 0 1.9692780337941629 800.6189638676101 508.3421689471819)"
		id="text-logo-path">
		<path
			style="stroke: none; stroke-width: 1; stroke-dasharray: none; stroke-linecap: butt; stroke-dashoffset: 0; stroke-linejoin: miter; stroke-miterlimit: 4; fill: rgb(36,132,132); fill-rule: nonzero; opacity: 1;"
			paint-order="stroke" transform=" translate(-176.035, 16.51)"
			d="M 0.73 -2.61 L 0.73 -2.61 Q 2.02 -9.73 3.05 -15.42 L 3.05 -15.42 Q 3.49 -17.86 3.93 -20.2 Q 4.37 -22.54 4.7 -24.41 Q 5.03 -26.28 5.26 -27.48 Q 5.49 -28.67 5.54 -28.81 L 5.54 -28.81 Q 5.89 -30.65 7.29 -31.77 L 7.29 -31.77 Q 8.68 -32.94 10.48 -32.94 L 10.48 -32.94 Q 12.33 -32.94 13.73 -31.77 L 13.73 -31.77 Q 15.12 -30.65 15.49 -28.81 L 15.49 -28.81 Q 15.49 -28.67 15.71 -27.5 Q 15.93 -26.32 16.27 -24.46 Q 16.61 -22.59 17.04 -20.25 Q 17.47 -17.91 17.91 -15.49 L 17.91 -15.49 Q 18.94 -9.78 20.3 -2.61 L 20.3 -2.61 Q 20.37 -2.37 20.37 -2.13 L 20.37 -2.13 Q 20.37 -1.52 19.93 -0.99 L 19.93 -0.99 Q 19.42 -0.18 18.54 -0.04 L 18.54 -0.04 Q 18.41 0 18.13 0 L 18.13 0 Q 17.31 0 16.71 -0.52 Q 16.11 -1.03 15.93 -1.85 L 15.93 -1.85 L 14.55 -9.36 Q 14.46 -10 13.78 -10 L 13.78 -10 L 7.25 -10 Q 6.57 -10 6.44 -9.36 L 6.44 -9.36 L 5.08 -1.85 Q 4.9 -1.03 4.3 -0.52 Q 3.69 0 2.88 0 L 2.88 0 Q 2.61 0 2.48 -0.04 L 2.48 -0.04 Q 1.58 -0.18 1.08 -0.99 L 1.08 -0.99 Q 0.66 -1.49 0.66 -2.11 L 0.66 -2.11 Q 0.66 -2.35 0.73 -2.61 Z M 7.56 -15.34 L 7.56 -15.34 Q 7.51 -15.03 7.73 -14.72 L 7.73 -14.72 Q 7.91 -14.46 8.33 -14.44 L 8.33 -14.44 L 12.63 -14.44 Q 13.03 -14.44 13.27 -14.72 L 13.27 -14.72 Q 13.49 -15.03 13.45 -15.34 L 13.45 -15.34 Q 13.1 -17.18 12.78 -18.96 Q 12.46 -20.74 12.17 -22.29 Q 11.89 -23.84 11.66 -25.08 Q 11.43 -26.32 11.29 -27.09 L 11.29 -27.09 Q 11.12 -27.73 10.48 -27.73 L 10.48 -27.73 Q 9.84 -27.73 9.71 -27.09 L 9.71 -27.09 Q 9.58 -26.32 9.36 -25.08 Q 9.14 -23.84 8.84 -22.29 Q 8.55 -20.74 8.21 -18.96 Q 7.87 -17.18 7.56 -15.34 Z M 22.68 -25.03 L 22.68 -25.03 Q 22.68 -26.24 23.04 -27.36 Q 23.4 -28.48 24.04 -29.47 L 24.04 -29.47 Q 25.49 -31.44 27.53 -32.3 L 27.53 -32.3 Q 28.92 -32.94 30.61 -32.94 L 30.61 -32.94 Q 33.09 -32.94 35.05 -31.6 L 35.05 -31.6 Q 36.94 -30.3 37.92 -28.13 L 37.92 -28.13 Q 38.52 -26.67 38.52 -25.03 L 38.52 -25.03 Q 38.52 -24.13 37.87 -23.47 Q 37.22 -22.81 36.32 -22.81 L 36.32 -22.81 Q 35.42 -22.81 34.76 -23.47 Q 34.1 -24.13 34.1 -25.03 L 34.1 -25.03 Q 34.1 -26.06 33.53 -27 L 33.53 -27 Q 32.89 -27.86 31.95 -28.26 L 31.95 -28.26 Q 31.31 -28.52 30.61 -28.52 L 30.61 -28.52 Q 30.56 -28.52 30.54 -28.52 L 30.54 -28.52 Q 29.53 -28.52 28.65 -27.91 L 28.65 -27.91 Q 27.8 -27.31 27.4 -26.37 L 27.4 -26.37 Q 27.14 -25.73 27.14 -25.03 L 27.14 -25.03 Q 27.14 -24.21 27.44 -23.53 L 27.44 -23.53 Q 27.71 -22.76 28.39 -21.86 L 28.39 -21.86 Q 28.94 -21.09 29.84 -20.23 Q 30.74 -19.36 32.08 -18.17 L 32.08 -18.17 Q 32.67 -17.67 33.37 -17.07 Q 34.06 -16.48 34.74 -15.75 L 34.74 -15.75 Q 35.46 -15.03 35.98 -14.38 Q 36.5 -13.73 36.94 -13.1 L 36.94 -13.1 Q 37.66 -12.02 37.97 -11.07 L 37.97 -11.07 Q 38.61 -9.45 38.61 -7.91 L 38.61 -7.91 Q 38.61 -5.52 37.22 -3.52 L 37.22 -3.52 Q 35.93 -1.63 33.75 -0.64 L 33.75 -0.64 Q 32.21 0 30.7 0 L 30.7 0 Q 28.26 0 26.24 -1.38 L 26.24 -1.38 Q 24.3 -2.68 23.36 -4.86 L 23.36 -4.86 Q 22.76 -6.31 22.76 -7.91 L 22.76 -7.91 Q 22.76 -8.85 23.42 -9.51 Q 24.08 -10.17 24.98 -10.17 L 24.98 -10.17 Q 25.88 -10.17 26.53 -9.51 Q 27.18 -8.85 27.18 -7.91 L 27.18 -7.91 Q 27.18 -6.92 27.77 -5.98 L 27.77 -5.98 Q 28.41 -5.12 29.29 -4.72 L 29.29 -4.72 Q 29.97 -4.46 30.7 -4.46 L 30.7 -4.46 Q 31.77 -4.46 32.63 -5.03 L 32.63 -5.03 Q 33.49 -5.67 33.88 -6.57 L 33.88 -6.57 Q 34.15 -7.25 34.15 -7.95 L 34.15 -7.95 Q 34.15 -8.77 33.84 -9.45 L 33.84 -9.45 Q 33.57 -10.22 32.94 -11.07 L 32.94 -11.07 Q 32.34 -11.84 31.48 -12.74 Q 30.61 -13.65 29.2 -14.81 L 29.2 -14.81 Q 28.34 -15.58 27.47 -16.36 Q 26.59 -17.14 25.82 -18.04 L 25.82 -18.04 Q 24.06 -19.93 23.31 -21.86 L 23.31 -21.86 Q 22.68 -23.49 22.68 -25.03 Z M 42.54 -2.2 L 42.54 -2.2 L 42.54 -30.74 Q 42.54 -31.73 43.26 -32.37 L 43.26 -32.37 Q 43.92 -32.94 44.74 -32.94 L 44.74 -32.94 Q 44.76 -32.94 44.8 -32.94 L 44.8 -32.94 Q 45.7 -32.94 46.35 -32.29 Q 47 -31.64 47 -30.74 L 47 -30.74 L 47 -19.89 Q 47 -19.53 47.21 -19.17 Q 47.42 -18.81 47.81 -18.63 L 47.81 -18.63 Q 48.32 -18.41 48.79 -18.57 Q 49.26 -18.72 49.53 -19.12 L 49.53 -19.12 Q 49.61 -19.25 50.04 -20.15 Q 50.47 -21.05 51.05 -22.36 Q 51.64 -23.66 52.32 -25.15 Q 53 -26.63 53.6 -27.98 Q 54.21 -29.33 54.64 -30.32 Q 55.06 -31.31 55.2 -31.6 L 55.2 -31.6 L 55.2 -31.64 Q 55.46 -32.28 56.02 -32.61 Q 56.58 -32.94 57.22 -32.94 L 57.22 -32.94 Q 57.77 -32.94 58.16 -32.76 L 58.16 -32.76 Q 59.02 -32.37 59.33 -31.51 L 59.33 -31.51 Q 59.46 -31.14 59.48 -30.76 L 59.48 -30.76 Q 59.48 -30.28 59.24 -29.79 L 59.24 -29.79 Q 59.24 -29.79 58.84 -28.94 L 58.84 -28.94 Q 58.47 -28.08 57.89 -26.82 Q 57.3 -25.55 56.63 -24.03 Q 55.96 -22.5 55.33 -21.15 Q 54.69 -19.8 54.24 -18.76 Q 53.79 -17.73 53.66 -17.47 L 53.66 -17.47 Q 53.57 -17.2 53.42 -16.95 Q 53.26 -16.7 53.09 -16.48 L 53.09 -16.48 Q 53.26 -16.26 53.42 -16.01 Q 53.57 -15.75 53.66 -15.49 L 53.66 -15.49 Q 53.79 -15.23 54.24 -14.18 Q 54.69 -13.14 55.33 -11.79 Q 55.96 -10.44 56.63 -8.91 Q 57.3 -7.38 57.89 -6.12 Q 58.47 -4.86 58.84 -4 L 58.84 -4 L 59.24 -3.14 Q 59.46 -2.66 59.46 -2.18 L 59.46 -2.18 Q 59.46 -1.8 59.33 -1.45 L 59.33 -1.45 Q 59.02 -0.62 58.16 -0.18 L 58.16 -0.18 Q 57.77 0 57.22 0 L 57.22 0 Q 56.58 0 56.02 -0.34 Q 55.46 -0.68 55.2 -1.3 L 55.2 -1.3 L 55.2 -1.34 Q 55.06 -1.6 54.64 -2.6 Q 54.21 -3.6 53.6 -4.95 Q 53 -6.31 52.32 -7.79 Q 51.64 -9.27 51.05 -10.58 Q 50.47 -11.89 50.04 -12.79 Q 49.61 -13.69 49.53 -13.82 L 49.53 -13.82 Q 49.26 -14.22 48.79 -14.38 Q 48.32 -14.55 47.81 -14.3 L 47.81 -14.3 Q 47.42 -14.13 47.21 -13.77 Q 47 -13.4 47 -13.05 L 47 -13.05 L 47 -2.2 Q 47 -1.3 46.35 -0.65 Q 45.7 0 44.8 0 L 44.8 0 Q 43.95 0 43.26 -0.59 L 43.26 -0.59 Q 42.54 -1.23 42.54 -2.2 Z M 73.61 -7.91 L 73.61 -7.91 L 73.61 -25.03 Q 73.61 -27.51 74.97 -29.47 L 74.97 -29.47 Q 76.27 -31.4 78.44 -32.3 L 78.44 -32.3 Q 79.83 -32.94 81.54 -32.94 L 81.54 -32.94 Q 83.98 -32.94 85.96 -31.6 L 85.96 -31.6 Q 87.93 -30.3 88.84 -28.13 L 88.84 -28.13 Q 89.45 -26.63 89.45 -25.14 L 89.45 -25.14 Q 89.45 -24.13 88.8 -23.47 Q 88.15 -22.81 87.25 -22.81 L 87.25 -22.81 Q 86.31 -22.81 85.66 -23.47 Q 85.01 -24.13 85.01 -25.03 L 85.01 -25.03 Q 85.01 -26.15 84.42 -27 L 84.42 -27 Q 83.83 -27.86 82.88 -28.26 L 82.88 -28.26 Q 82.24 -28.52 81.54 -28.52 L 81.54 -28.52 Q 80.55 -28.52 79.61 -27.95 L 79.61 -27.95 Q 78.64 -27.31 78.33 -26.37 L 78.33 -26.37 Q 78.02 -25.77 78.02 -25.03 L 78.02 -25.03 L 78.02 -7.91 Q 78.02 -6.88 78.66 -5.98 L 78.66 -5.98 Q 79.26 -5.12 80.18 -4.72 L 80.18 -4.72 Q 80.77 -4.46 81.54 -4.46 L 81.54 -4.46 Q 82.62 -4.46 83.47 -5.03 L 83.47 -5.03 Q 84.29 -5.54 84.73 -6.57 L 84.73 -6.57 Q 84.99 -7.25 85.01 -7.91 L 85.01 -7.91 Q 85.01 -8.81 85.66 -9.47 Q 86.31 -10.13 87.25 -10.13 L 87.25 -10.13 Q 88.15 -10.13 88.8 -9.47 Q 89.45 -8.81 89.45 -7.91 L 89.45 -7.91 Q 89.45 -6.75 89.1 -5.63 Q 88.75 -4.5 88.11 -3.52 L 88.11 -3.52 Q 86.81 -1.54 84.59 -0.64 L 84.59 -0.64 Q 83.1 0 81.54 0 L 81.54 0 Q 79.21 0 77.08 -1.34 L 77.08 -1.34 Q 75.15 -2.64 74.25 -4.86 L 74.25 -4.86 Q 73.61 -6.35 73.61 -7.91 Z M 93.16 -2.24 L 93.16 -2.24 L 93.16 -30.74 Q 93.16 -31.64 93.85 -32.29 Q 94.53 -32.94 95.43 -32.94 L 95.43 -32.94 Q 96.33 -32.94 96.98 -32.29 Q 97.62 -31.64 97.62 -30.74 L 97.62 -30.74 L 97.62 -5.23 Q 97.62 -4.92 97.86 -4.69 Q 98.09 -4.46 98.44 -4.46 L 98.44 -4.46 L 104.02 -4.46 Q 104.92 -4.46 105.57 -3.8 Q 106.22 -3.14 106.22 -2.24 L 106.22 -2.24 Q 106.22 -1.3 105.57 -0.65 Q 104.92 0 104.02 0 L 104.02 0 L 95.43 0 Q 94.53 0 93.85 -0.65 Q 93.16 -1.3 93.16 -2.24 Z M 107.47 -8.72 L 107.47 -8.72 L 107.47 -24.35 Q 107.47 -25.64 107.85 -26.88 Q 108.24 -28.13 108.96 -29.16 L 108.96 -29.16 Q 110.41 -31.35 112.79 -32.3 L 112.79 -32.3 Q 114.41 -32.98 116.17 -32.98 L 116.17 -32.98 Q 118.87 -32.98 121.03 -31.51 L 121.03 -31.51 Q 123.18 -30.06 124.12 -27.73 L 124.12 -27.73 Q 124.85 -26.02 124.85 -24.35 L 124.85 -24.35 L 124.85 -8.72 Q 124.85 -6.11 123.35 -3.87 L 123.35 -3.87 Q 122.63 -2.83 121.67 -2.02 Q 120.72 -1.21 119.53 -0.73 L 119.53 -0.73 Q 117.91 -0.04 116.17 -0.04 L 116.17 -0.04 Q 113.55 -0.04 111.31 -1.54 L 111.31 -1.54 Q 110.28 -2.26 109.47 -3.22 Q 108.65 -4.17 108.15 -5.36 L 108.15 -5.36 Q 107.47 -6.99 107.47 -8.72 Z M 111.93 -24.35 L 111.93 -8.72 Q 111.93 -7.38 112.65 -6.35 L 112.65 -6.35 Q 113.33 -5.32 114.5 -4.81 L 114.5 -4.81 Q 115.27 -4.5 116.17 -4.5 L 116.17 -4.5 Q 117.51 -4.5 118.54 -5.23 L 118.54 -5.23 Q 119.58 -5.91 120.08 -7.08 L 120.08 -7.08 Q 120.39 -7.84 120.39 -8.72 L 120.39 -8.72 L 120.39 -24.35 Q 120.39 -25.69 119.66 -26.67 L 119.66 -26.67 Q 118.98 -27.71 117.82 -28.21 L 117.82 -28.21 Q 116.96 -28.56 116.17 -28.56 L 116.17 -28.56 Q 114.96 -28.56 113.77 -27.86 L 113.77 -27.86 Q 112.74 -27.18 112.26 -25.97 L 112.26 -25.97 Q 112.08 -25.62 112.01 -25.18 Q 111.93 -24.74 111.93 -24.35 L 111.93 -24.35 Z M 129.24 -8.68 L 129.24 -8.68 L 129.24 -30.74 Q 129.24 -31.64 129.9 -32.29 Q 130.56 -32.94 131.46 -32.94 L 131.46 -32.94 Q 132.36 -32.94 133.01 -32.29 Q 133.66 -31.64 133.66 -30.74 L 133.66 -30.74 L 133.66 -8.68 Q 133.66 -7.47 134.38 -6.31 L 134.38 -6.31 Q 135.07 -5.27 136.27 -4.77 L 136.27 -4.77 Q 136.63 -4.59 137.05 -4.53 Q 137.48 -4.46 137.9 -4.46 L 137.9 -4.46 Q 139.24 -4.46 140.27 -5.19 L 140.27 -5.19 Q 141.31 -5.87 141.81 -7.01 L 141.81 -7.01 Q 142.16 -7.87 142.16 -8.68 L 142.16 -8.68 L 142.16 -30.74 Q 142.16 -31.64 142.82 -32.29 Q 143.48 -32.94 144.38 -32.94 L 144.38 -32.94 Q 145.28 -32.94 145.93 -32.29 Q 146.58 -31.64 146.58 -30.74 L 146.58 -30.74 L 146.58 -8.68 Q 146.58 -5.98 145.09 -3.82 L 145.09 -3.82 Q 143.64 -1.71 141.26 -0.68 L 141.26 -0.68 Q 139.68 0 137.9 0 L 137.9 0 Q 135.33 0 133.09 -1.49 L 133.09 -1.49 Q 132.06 -2.22 131.24 -3.18 Q 130.43 -4.13 129.92 -5.32 L 129.92 -5.32 Q 129.24 -6.94 129.24 -8.68 Z M 151.3 -2.29 L 151.3 -2.29 L 151.3 -30.78 Q 151.3 -31.68 151.96 -32.37 L 151.96 -32.37 Q 152.58 -32.98 153.48 -32.98 L 153.48 -32.98 Q 153.5 -32.98 153.54 -32.98 L 153.54 -32.98 L 159.04 -32.98 Q 161.87 -32.98 164.25 -31.42 L 164.25 -31.42 Q 166.53 -29.79 167.63 -27.31 L 167.63 -27.31 Q 168.35 -25.6 168.35 -23.66 L 168.35 -23.66 L 168.35 -9.4 Q 168.35 -6.53 166.77 -4.17 L 166.77 -4.17 Q 165.15 -1.78 162.64 -0.81 L 162.64 -0.81 Q 160.88 -0.04 159.04 -0.04 L 159.04 -0.04 L 153.54 -0.04 Q 152.64 -0.04 151.96 -0.73 L 151.96 -0.73 Q 151.28 -1.41 151.3 -2.29 Z M 155.74 -27.77 L 155.74 -5.27 Q 155.74 -4.97 155.97 -4.74 Q 156.2 -4.5 156.56 -4.5 L 156.56 -4.5 L 159.04 -4.5 Q 160.49 -4.5 161.78 -5.32 L 161.78 -5.32 Q 162.99 -6.17 163.54 -7.47 L 163.54 -7.47 Q 163.94 -8.42 163.94 -9.4 L 163.94 -9.4 L 163.94 -23.66 Q 163.94 -25.05 163.08 -26.41 L 163.08 -26.41 Q 162.22 -27.66 160.93 -28.17 L 160.93 -28.17 Q 160.03 -28.56 159.04 -28.56 L 159.04 -28.56 L 156.56 -28.56 Q 156.2 -28.56 155.97 -28.34 Q 155.74 -28.13 155.74 -27.77 L 155.74 -27.77 Z M 181.34 -2.61 L 181.34 -2.61 Q 182.64 -9.73 183.67 -15.42 L 183.67 -15.42 Q 184.11 -17.86 184.55 -20.2 Q 184.99 -22.54 185.32 -24.41 Q 185.65 -26.28 185.88 -27.48 Q 186.11 -28.67 186.15 -28.81 L 186.15 -28.81 Q 186.5 -30.65 187.91 -31.77 L 187.91 -31.77 Q 189.29 -32.94 191.1 -32.94 L 191.1 -32.94 Q 192.94 -32.94 194.35 -31.77 L 194.35 -31.77 Q 195.73 -30.65 196.11 -28.81 L 196.11 -28.81 Q 196.11 -28.67 196.33 -27.5 Q 196.55 -26.32 196.89 -24.46 Q 197.23 -22.59 197.66 -20.25 Q 198.08 -17.91 198.52 -15.49 L 198.52 -15.49 Q 199.56 -9.78 200.92 -2.61 L 200.92 -2.61 Q 200.98 -2.37 200.98 -2.13 L 200.98 -2.13 Q 200.98 -1.52 200.54 -0.99 L 200.54 -0.99 Q 200.04 -0.18 199.16 -0.04 L 199.16 -0.04 Q 199.03 0 198.74 0 L 198.74 0 Q 197.93 0 197.33 -0.52 Q 196.72 -1.03 196.55 -1.85 L 196.55 -1.85 L 195.16 -9.36 Q 195.07 -10 194.39 -10 L 194.39 -10 L 187.87 -10 Q 187.19 -10 187.05 -9.36 L 187.05 -9.36 L 185.69 -1.85 Q 185.52 -1.03 184.91 -0.52 Q 184.31 0 183.49 0 L 183.49 0 Q 183.23 0 183.1 -0.04 L 183.1 -0.04 Q 182.2 -0.18 181.69 -0.99 L 181.69 -0.99 Q 181.27 -1.49 181.27 -2.11 L 181.27 -2.11 Q 181.27 -2.35 181.34 -2.61 Z M 188.17 -15.34 L 188.17 -15.34 Q 188.13 -15.03 188.35 -14.72 L 188.35 -14.72 Q 188.53 -14.46 188.94 -14.44 L 188.94 -14.44 L 193.25 -14.44 Q 193.65 -14.44 193.89 -14.72 L 193.89 -14.72 Q 194.11 -15.03 194.06 -15.34 L 194.06 -15.34 Q 193.71 -17.18 193.39 -18.96 Q 193.07 -20.74 192.79 -22.29 Q 192.5 -23.84 192.27 -25.08 Q 192.04 -26.32 191.91 -27.09 L 191.91 -27.09 Q 191.73 -27.73 191.1 -27.73 L 191.1 -27.73 Q 190.46 -27.73 190.33 -27.09 L 190.33 -27.09 Q 190.2 -26.32 189.98 -25.08 Q 189.76 -23.84 189.46 -22.29 Q 189.16 -20.74 188.82 -18.96 Q 188.48 -17.18 188.17 -15.34 Z M 204.1 -2.24 L 204.1 -2.24 L 204.1 -30.74 Q 204.1 -31.64 204.76 -32.3 L 204.76 -32.3 Q 205.4 -32.94 206.35 -32.94 L 206.35 -32.94 L 212.48 -32.94 Q 215.35 -32.94 217.68 -31.35 L 217.68 -31.35 Q 220.01 -29.77 221.11 -27.27 L 221.11 -27.27 Q 221.46 -26.37 221.65 -25.47 Q 221.84 -24.57 221.84 -23.62 L 221.84 -23.62 Q 221.84 -20.7 220.21 -18.41 L 220.21 -18.41 Q 219.9 -17.91 219.52 -17.46 Q 219.13 -17.01 218.72 -16.66 L 218.72 -16.66 Q 218.5 -16.44 218.45 -16.12 Q 218.41 -15.8 218.58 -15.58 L 218.58 -15.58 Q 219.84 -13.91 220.12 -11.93 L 220.12 -11.93 Q 220.25 -11.12 220.41 -10.02 Q 220.56 -8.92 220.73 -7.72 Q 220.89 -6.53 221.04 -5.43 Q 221.2 -4.33 221.33 -3.6 L 221.33 -3.6 L 221.46 -2.57 Q 221.48 -2.4 221.48 -2.24 L 221.48 -2.24 Q 221.48 -1.54 221.04 -0.92 L 221.04 -0.92 Q 220.47 -0.18 219.57 -0.04 L 219.57 -0.04 Q 219.48 0 219.27 0 L 219.27 0 Q 218.45 0 217.83 -0.54 Q 217.2 -1.08 217.05 -1.93 L 217.05 -1.93 Q 217.05 -1.98 216.89 -3.08 Q 216.74 -4.17 216.54 -5.69 Q 216.34 -7.21 216.11 -8.76 Q 215.88 -10.31 215.75 -11.29 L 215.75 -11.29 Q 215.53 -12.59 214.58 -13.4 L 214.58 -13.4 Q 213.6 -14.26 212.32 -14.26 L 212.32 -14.26 L 209.36 -14.26 Q 209 -14.26 208.77 -14.04 Q 208.54 -13.82 208.54 -13.45 L 208.54 -13.45 L 208.54 -2.24 Q 208.54 -1.3 207.89 -0.65 Q 207.25 0 206.35 0 L 206.35 0 Q 205.4 0 204.75 -0.65 Q 204.1 -1.3 204.1 -2.24 Z M 208.54 -27.73 L 208.54 -19.49 Q 208.54 -19.18 208.77 -18.95 Q 209 -18.72 209.36 -18.72 L 209.36 -18.72 L 212.32 -18.72 L 212.37 -18.72 L 212.43 -18.72 L 212.48 -18.72 Q 214.01 -18.72 215.2 -19.53 L 215.2 -19.53 Q 216.45 -20.35 217 -21.69 L 217 -21.69 Q 217.35 -22.68 217.38 -23.62 L 217.38 -23.62 Q 217.38 -25.07 216.56 -26.37 L 216.56 -26.37 Q 215.71 -27.58 214.41 -28.13 L 214.41 -28.13 Q 213.46 -28.52 212.48 -28.52 L 212.48 -28.52 L 209.36 -28.52 Q 209 -28.52 208.77 -28.3 Q 208.54 -28.08 208.54 -27.73 L 208.54 -27.73 Z M 225.64 -7.91 L 225.64 -7.91 L 225.64 -25.03 Q 225.64 -27.51 227 -29.47 L 227 -29.47 Q 228.3 -31.4 230.47 -32.3 L 230.47 -32.3 Q 231.86 -32.94 233.57 -32.94 L 233.57 -32.94 Q 236.01 -32.94 237.99 -31.6 L 237.99 -31.6 Q 239.96 -30.3 240.86 -28.13 L 240.86 -28.13 Q 241.48 -26.63 241.48 -25.14 L 241.48 -25.14 Q 241.48 -24.13 240.83 -23.47 Q 240.18 -22.81 239.28 -22.81 L 239.28 -22.81 Q 238.34 -22.81 237.69 -23.47 Q 237.04 -24.13 237.04 -25.03 L 237.04 -25.03 Q 237.04 -26.15 236.45 -27 L 236.45 -27 Q 235.85 -27.86 234.91 -28.26 L 234.91 -28.26 Q 234.27 -28.52 233.57 -28.52 L 233.57 -28.52 Q 232.58 -28.52 231.64 -27.95 L 231.64 -27.95 Q 230.67 -27.31 230.36 -26.37 L 230.36 -26.37 Q 230.05 -25.77 230.05 -25.03 L 230.05 -25.03 L 230.05 -7.91 Q 230.05 -6.88 230.69 -5.98 L 230.69 -5.98 Q 231.28 -5.12 232.21 -4.72 L 232.21 -4.72 Q 232.8 -4.46 233.57 -4.46 L 233.57 -4.46 Q 234.65 -4.46 235.5 -5.03 L 235.5 -5.03 Q 236.32 -5.54 236.76 -6.57 L 236.76 -6.57 Q 237.02 -7.25 237.04 -7.91 L 237.04 -7.91 Q 237.04 -8.81 237.69 -9.47 Q 238.34 -10.13 239.28 -10.13 L 239.28 -10.13 Q 240.18 -10.13 240.83 -9.47 Q 241.48 -8.81 241.48 -7.91 L 241.48 -7.91 Q 241.48 -6.75 241.13 -5.63 Q 240.78 -4.5 240.14 -3.52 L 240.14 -3.52 Q 238.84 -1.54 236.62 -0.64 L 236.62 -0.64 Q 235.13 0 233.57 0 L 233.57 0 Q 231.24 0 229.11 -1.34 L 229.11 -1.34 Q 227.18 -2.64 226.27 -4.86 L 226.27 -4.86 Q 225.64 -6.35 225.64 -7.91 Z M 245.3 -2.29 L 245.3 -2.29 L 245.3 -30.78 Q 245.3 -31.68 245.95 -32.33 Q 246.6 -32.98 247.54 -32.98 L 247.54 -32.98 Q 248.44 -32.98 249.09 -32.33 Q 249.74 -31.68 249.74 -30.78 L 249.74 -30.78 L 249.74 -19.58 Q 249.74 -19.23 249.97 -19 Q 250.2 -18.76 250.51 -18.76 L 250.51 -18.76 L 256.95 -18.76 Q 257.26 -18.76 257.49 -18.98 Q 257.72 -19.2 257.72 -19.58 L 257.72 -19.58 L 257.72 -30.78 Q 257.72 -31.68 258.37 -32.33 Q 259.01 -32.98 259.91 -32.98 L 259.91 -32.98 Q 260.86 -32.98 261.52 -32.33 Q 262.18 -31.68 262.18 -30.78 L 262.18 -30.78 L 262.18 -2.29 Q 262.18 -1.34 261.52 -0.69 Q 260.86 -0.04 259.91 -0.04 L 259.91 -0.04 Q 259.01 -0.04 258.37 -0.69 Q 257.72 -1.34 257.72 -2.29 L 257.72 -2.29 L 257.72 -13.54 Q 257.72 -13.89 257.49 -14.12 Q 257.26 -14.35 256.95 -14.35 L 256.95 -14.35 L 250.51 -14.35 Q 250.2 -14.35 249.97 -14.13 Q 249.74 -13.91 249.74 -13.54 L 249.74 -13.54 L 249.74 -2.29 Q 249.74 -1.34 249.09 -0.69 Q 248.44 -0.04 247.54 -0.04 L 247.54 -0.04 Q 246.6 -0.04 245.95 -0.69 Q 245.3 -1.34 245.3 -2.29 Z M 266.99 -2.24 L 266.99 -2.24 L 266.99 -30.74 Q 266.99 -31.64 267.64 -32.29 Q 268.29 -32.94 269.19 -32.94 L 269.19 -32.94 Q 270.09 -32.94 270.74 -32.29 Q 271.38 -31.64 271.38 -30.74 L 271.38 -30.74 L 271.38 -2.24 Q 271.38 -1.3 270.74 -0.65 Q 270.09 0 269.19 0 L 269.19 0 Q 268.29 0 267.64 -0.65 Q 266.99 -1.3 266.99 -2.24 Z M 274.57 -30.83 L 274.57 -30.83 Q 274.57 -31.73 275.22 -32.38 Q 275.87 -33.02 276.77 -33.02 L 276.77 -33.02 L 291.14 -33.02 Q 292.04 -33.02 292.69 -32.38 Q 293.33 -31.73 293.33 -30.83 L 293.33 -30.83 Q 293.33 -29.93 292.69 -29.28 Q 292.04 -28.63 291.14 -28.63 L 291.14 -28.63 L 286.98 -28.63 Q 286.63 -28.63 286.42 -28.4 Q 286.22 -28.17 286.22 -27.82 L 286.22 -27.82 L 286.22 -2.24 Q 286.22 -1.34 285.55 -0.67 Q 284.88 0 283.97 0 L 283.97 0 Q 283.07 0 282.43 -0.67 Q 281.78 -1.34 281.78 -2.24 L 281.78 -2.24 L 281.78 -27.82 Q 281.78 -28.17 281.55 -28.4 Q 281.32 -28.63 280.96 -28.63 L 280.96 -28.63 L 276.77 -28.63 Q 275.87 -28.63 275.22 -29.28 Q 274.57 -29.93 274.57 -30.83 Z M 296.37 -2.29 L 296.37 -2.29 L 296.37 -30.78 Q 296.37 -31.68 297.02 -32.33 Q 297.66 -32.98 298.56 -32.98 L 298.56 -32.98 L 309.73 -32.98 Q 310.63 -32.98 311.28 -32.33 Q 311.92 -31.68 311.92 -30.78 L 311.92 -30.78 Q 311.92 -29.88 311.28 -29.22 Q 310.63 -28.56 309.73 -28.56 L 309.73 -28.56 L 301.57 -28.56 Q 301.22 -28.56 300.99 -28.34 Q 300.76 -28.13 300.76 -27.77 L 300.76 -27.77 L 300.76 -19.53 Q 300.76 -19.18 300.99 -18.97 Q 301.22 -18.76 301.57 -18.76 L 301.57 -18.76 L 307.46 -18.76 Q 308.36 -18.76 309.02 -18.12 Q 309.68 -17.47 309.68 -16.52 L 309.68 -16.52 Q 309.68 -15.62 309.02 -14.96 Q 308.36 -14.3 307.46 -14.3 L 307.46 -14.3 L 301.57 -14.3 Q 301.22 -14.3 300.99 -14.08 Q 300.76 -13.86 300.76 -13.49 L 300.76 -13.49 L 300.76 -5.27 Q 300.76 -4.97 300.99 -4.74 Q 301.22 -4.5 301.57 -4.5 L 301.57 -4.5 L 309.73 -4.5 Q 310.63 -4.5 311.28 -3.85 Q 311.92 -3.19 311.92 -2.29 L 311.92 -2.29 Q 311.92 -1.34 311.28 -0.69 Q 310.63 -0.04 309.73 -0.04 L 309.73 -0.04 L 298.56 -0.04 Q 297.66 -0.04 297.02 -0.69 Q 296.37 -1.34 296.37 -2.29 Z M 314.87 -7.91 L 314.87 -7.91 L 314.87 -25.03 Q 314.87 -27.51 316.23 -29.47 L 316.23 -29.47 Q 317.53 -31.4 319.7 -32.3 L 319.7 -32.3 Q 321.09 -32.94 322.8 -32.94 L 322.8 -32.94 Q 325.24 -32.94 327.22 -31.6 L 327.22 -31.6 Q 329.19 -30.3 330.1 -28.13 L 330.1 -28.13 Q 330.71 -26.63 330.71 -25.14 L 330.71 -25.14 Q 330.71 -24.13 330.06 -23.47 Q 329.41 -22.81 328.51 -22.81 L 328.51 -22.81 Q 327.57 -22.81 326.92 -23.47 Q 326.27 -24.13 326.27 -25.03 L 326.27 -25.03 Q 326.27 -26.15 325.68 -27 L 325.68 -27 Q 325.09 -27.86 324.14 -28.26 L 324.14 -28.26 Q 323.5 -28.52 322.8 -28.52 L 322.8 -28.52 Q 321.81 -28.52 320.87 -27.95 L 320.87 -27.95 Q 319.9 -27.31 319.59 -26.37 L 319.59 -26.37 Q 319.28 -25.77 319.28 -25.03 L 319.28 -25.03 L 319.28 -7.91 Q 319.28 -6.88 319.92 -5.98 L 319.92 -5.98 Q 320.52 -5.12 321.44 -4.72 L 321.44 -4.72 Q 322.03 -4.46 322.8 -4.46 L 322.8 -4.46 Q 323.88 -4.46 324.73 -5.03 L 324.73 -5.03 Q 325.55 -5.54 325.99 -6.57 L 325.99 -6.57 Q 326.25 -7.25 326.27 -7.91 L 326.27 -7.91 Q 326.27 -8.81 326.92 -9.47 Q 327.57 -10.13 328.51 -10.13 L 328.51 -10.13 Q 329.41 -10.13 330.06 -9.47 Q 330.71 -8.81 330.71 -7.91 L 330.71 -7.91 Q 330.71 -6.75 330.36 -5.63 Q 330.01 -4.5 329.37 -3.52 L 329.37 -3.52 Q 328.07 -1.54 325.85 -0.64 L 325.85 -0.64 Q 324.36 0 322.8 0 L 322.8 0 Q 320.47 0 318.34 -1.34 L 318.34 -1.34 Q 316.41 -2.64 315.51 -4.86 L 315.51 -4.86 Q 314.87 -6.35 314.87 -7.91 Z M 334.53 -2.29 L 334.53 -2.29 L 334.53 -30.78 Q 334.53 -31.68 335.18 -32.33 Q 335.83 -32.98 336.77 -32.98 L 336.77 -32.98 Q 337.68 -32.98 338.32 -32.33 Q 338.97 -31.68 338.97 -30.78 L 338.97 -30.78 L 338.97 -19.58 Q 338.97 -19.23 339.2 -19 Q 339.43 -18.76 339.74 -18.76 L 339.74 -18.76 L 346.18 -18.76 Q 346.49 -18.76 346.72 -18.98 Q 346.95 -19.2 346.95 -19.58 L 346.95 -19.58 L 346.95 -30.78 Q 346.95 -31.68 347.6 -32.33 Q 348.24 -32.98 349.15 -32.98 L 349.15 -32.98 Q 350.09 -32.98 350.75 -32.33 Q 351.41 -31.68 351.41 -30.78 L 351.41 -30.78 L 351.41 -2.29 Q 351.41 -1.34 350.75 -0.69 Q 350.09 -0.04 349.15 -0.04 L 349.15 -0.04 Q 348.24 -0.04 347.6 -0.69 Q 346.95 -1.34 346.95 -2.29 L 346.95 -2.29 L 346.95 -13.54 Q 346.95 -13.89 346.72 -14.12 Q 346.49 -14.35 346.18 -14.35 L 346.18 -14.35 L 339.74 -14.35 Q 339.43 -14.35 339.2 -14.13 Q 338.97 -13.91 338.97 -13.54 L 338.97 -13.54 L 338.97 -2.29 Q 338.97 -1.34 338.32 -0.69 Q 337.68 -0.04 336.77 -0.04 L 336.77 -0.04 Q 335.83 -0.04 335.18 -0.69 Q 334.53 -1.34 334.53 -2.29 Z"
			stroke-linecap="round" />
	</g>
	<g transform="matrix(0.9323165474109699 0 0 0.9323165474109699 279.2252273940454 512.012312418764)" id="logo-logo">
		<g style="" paint-order="stroke">
			<g transform="matrix(0.2335 0 0 -0.2335 -1.351600000000019 -14.337327635384042)">
				<path
					style="stroke: none; stroke-width: 1; stroke-dasharray: none; stroke-linecap: butt; stroke-dashoffset: 0; stroke-linejoin: miter; stroke-miterlimit: 4; fill: rgb(36,132,132); fill-rule: nonzero; opacity: 1;"
					paint-order="stroke" transform=" translate(-1619.2037636895634, -1679.2385268292096)"
					d="m 2307.5 1582.44 c 0 -12.34 -9.98 -22.33 -22.31 -22.33 c -9.65 -0.35 -19.15 6.94 -21.51 16.22 c -11.75 53.58 -60.4 124.45 -106.12 154.65 c -9.86 7.4 -23.85 5.29 -31.25 -4.59 c -0.24 -0.35 -0.82 -1.06 -1.07 -1.53 c -6.1 -9.63 -3.64 -22.91 5.66 -29.61 c 20.67 -13.98 50.05 -46.18 62.27 -68.05 c 71.67 -115.98 35.74 -268.14 -80.26 -339.85 c -0.47 -0.34 -1.52 -0.81 -2 -1.03 c -11.05 -5.43 -24.44 -0.83 -29.84 10.21 c -5.06 10.1 -1.3 22.92 8.33 28.8 c 29.14 15.74 64.76 55.81 77.08 86.6 c 5.19 11.16 0.38 24.43 -10.81 29.61 c -0.7 0.36 -1.86 0.82 -2.56 1.05 c -10.46 3.53 -22.56 -1.75 -27.04 -11.86 c -21.98 -53 -85.67 -93.66 -143 -91.06 h -111.42 c -12.32 0 -22.2 9.97 -22.2 22.31 c 0 12.22 9.88 22.21 22.2 22.21 h 111.42 c 62.52 0 113.15 50.65 113.15 113.16 c 0 62.53 -50.63 113.17 -113.15 113.17 c -15.76 0.94 -41.14 -5.63 -54.53 -13.97 c -6.94 -4.36 -19.52 -6.71 -27.63 -5.07 c -24.31 3.41 -41.35 25.86 -38.07 50.31 c 8.22 40.76 -7.05 101.52 -33.48 133.72 c -6.83 9.05 -5.41 22.21 3.04 29.61 c 0.35 0.47 1.31 1.18 1.77 1.53 c 9.99 7.29 23.96 5.05 31.26 -4.94 c 32.78 -39.83 51.7 -115.27 41.59 -166.04 c 17.28 10.7 50.29 19.74 70.64 19.39 c 87.08 2.94 160.05 -65.22 163.1 -152.3 c 0.12 -11.05 9.18 -20.57 20.22 -21.38 c 12.33 -1.07 23.15 7.99 24.21 20.21 c 0.11 0.7 0.11 1.99 0.11 2.7 c -3.87 111.75 -97.53 199.19 -209.18 195.3 c -6.21 -0.11 -17.98 -1.17 -23.96 -2.22 c -6.82 99.88 -89.55 202 -185.77 229.26 c -11.08 3.53 -17.53 15.39 -14.71 26.56 c 0.12 0.47 0.34 1.29 0.47 1.65 c 3.88 11.75 16.57 18.09 28.2 14.22 c 96.11 -26.44 189.44 -127.03 208.59 -224.81 c 19.5 0.36 54.06 -5.75 72.38 -12.57 c 10.81 -3.75 23.05 1.76 27.51 12.34 c 4.82 11.28 -0.36 24.44 -11.75 29.26 c -0.36 0.23 -1.31 0.47 -1.66 0.7 c -13.16 4.7 -38.66 10.7 -52.52 12.23 c -65.81 189.19 -272.64 289.2 -461.83 223.38 c -67.1 -18.91 -152.53 -86.48 -186.5 -147.36 c -26.44 6.82 -75.08 9.64 -102.11 6 c -12.23 -1.29 -21.27 -12.1 -20.1 -24.44 c 0.12 -0.35 0.24 -1.18 0.24 -1.53 c 1.88 -11.52 12.69 -19.74 24.2 -18.45 c 32.56 4.82 88.73 -1.65 119.28 -13.63 c 47.47 105.4 178.03 183.2 293.31 174.86 c 0.37 0 1.17 -0.11 1.65 -0.11 c 12.21 -1.3 21.14 -12.23 19.86 -24.46 c -1.06 -11.51 -11.28 -20.44 -22.79 -19.97 c -39.5 3.29 -103.31 -11.75 -137.14 -32.43 c -10.81 -5.76 -14.93 -19.28 -9.06 -30.2 c 0.24 -0.35 0.7 -1.3 0.95 -1.65 c 6.23 -9.64 19.15 -12.92 29.25 -7.4 c 62.52 37.84 162.65 35.95 223.76 -4.24 c 0.58 -0.23 1.51 -0.94 1.99 -1.28 c 9.99 -7.29 11.98 -21.27 4.7 -31.14 c -6.57 -9.17 -19.63 -11.75 -29.13 -6 c -87.91 51.36 -200.84 21.85 -252.32 -66.04 c -14.45 -21.86 -26.2 -63.69 -25.14 -89.91 c 0.35 -10.8 -6.23 -25.49 -14.69 -32.31 c -18.22 -16.45 -46.43 -15.16 -62.99 3.06 c 0 0.11 -0.12 0.24 -0.12 0.24 c -8.34 9.16 -22.44 9.74 -31.49 1.52 c -0.83 -0.7 -2 -2 -2.59 -2.82 c -6.69 -8.22 -6.22 -21.04 1.06 -28.67 c 0 -0.12 0.12 -0.12 0.12 -0.25 c 33.13 -36.41 89.54 -39.12 125.97 -6.09 c 16.92 13.63 30.21 42.88 29.26 64.51 c -0.23 9.75 2.47 27.14 5.41 36.42 c 0.35 1.07 1.05 2.95 1.64 3.88 c 5.53 11.04 19.05 15.4 29.97 9.75 c 9.4 -4.57 14.45 -16.09 11.27 -26.09 c -1.99 -6.22 -3.87 -18.09 -3.75 -24.66 c 1.42 -32.56 -18.44 -76.39 -43.82 -96.84 c -54.66 -49.59 -139.26 -45.48 -188.97 9.17 c -23.86 26.31 -64.63 28.32 -90.95 4.46 c -26.32 -23.97 -28.33 -64.63 -4.35 -90.96 c 10.1 -12.45 31.61 -22.09 47.58 -21.15 h 100.6 c 12.22 0 22.21 -9.98 22.21 -22.2 c 0 -12.35 -9.99 -22.34 -22.21 -22.34 h -100.6 c -5.52 -0.1 -15.74 0.83 -21.14 2.12 c -59 11.63 -97.42 68.98 -85.67 128.09 c 11.75 59 69.1 97.3 128.09 85.67 c 10.33 -2.34 21.5 3.87 25.15 13.87 c 4.46 11.52 -1.3 24.32 -12.82 28.79 c -0.94 0.35 -2.7 0.82 -3.64 1.05 c -30.2 7.87 -77.91 0.47 -104.23 -16.32 c -9.64 -5.42 -22.45 -2.6 -28.79 6.34 c -0.47 0.58 -1.18 1.76 -1.52 2.46 c -6 10.7 -2.12 24.33 8.68 30.2 c 76.75 45.25 184.62 27.27 242.67 -40.19 c -1.99 48.06 25.04 116.46 59.47 149.95 c 7.75 8.47 7.63 21.86 -0.13 30.21 c -8.34 9.04 -22.44 9.51 -31.5 1.17 c -0.46 -0.23 -1.05 -0.94 -1.4 -1.41 c -22.33 -22.21 -49.47 -68.98 -57.7 -99.54 c -117.98 63.82 -265.22 19.86 -329.03 -98.12 c -44.77 -74.62 -37.26 -189.31 16.8 -257.49 c 6.81 -9.27 5.17 -22.66 -3.53 -29.94 c -0.35 -0.37 -1.17 -0.95 -1.52 -1.18 c -9.99 -7.28 -23.98 -4.93 -31.14 5.04 c -11.52 14.81 -28.09 45.02 -34.32 62.64 c -58.287 147.72 14.23 314.59 161.82 372.87 c 10.81 4.12 16.69 16.34 13.04 27.38 c -3.64 11.76 -16.21 18.34 -27.97 14.57 c -0.35 -0.11 -1.06 -0.34 -1.41 -0.46 c -106.23 -36.08 -198.829 -155.24 -207.52 -266.99 c -1.184 -11.06 -11.051 -19.74 -22.094 -19.51 c -0.711 0 -2.117 0 -2.824 0.11 c -12.223 1.65 -20.805 12.82 -19.266 24.92 c 0 0.58 0.227 1.65 0.227 2.23 c 27.386 206.13 216.697 351.01 422.817 323.76 c 33.26 49.93 111.05 110.81 167.46 131.01 c 207.29 87.67 446.19 -9.28 533.86 -216.45 c 113.28 -19.39 225.39 -125.28 251.12 -237.26 c 0.6 -1.52 0.93 -4.46 0.93 -5.99"
					stroke-linecap="round" />
			</g>
			<g transform="matrix(0.2335 0 0 -0.2335 0 31.210072364615883)">
				<path
					style="stroke: none; stroke-width: 1; stroke-dasharray: none; stroke-linecap: butt; stroke-dashoffset: 0; stroke-linejoin: miter; stroke-miterlimit: 4; fill: rgb(36,132,132); fill-rule: nonzero; opacity: 1;"
					paint-order="stroke" transform=" translate(-1624.992461292936, -1484.1703592177953)"
					d="m 2319.14 1492.89 c -2.11 -183.55 -152.52 -331.96 -336.07 -331.62 h -678.54 c -186.36 -2.81 -352.768 143.84 -373.444 329.15 c -0.129 0.71 -0.242 2 -0.242 2.83 c 0 12.22 9.996 22.21 22.332 22.21 c 11.043 0.23 20.91 -8.46 22.094 -19.51 c 18.324 -163.33 164.98 -292.6 329.26 -290.14 h 215.41 c 12.34 0 22.33 9.98 22.33 22.31 c 0 12.35 -9.99 22.35 -22.33 22.35 h -215.41 c -50.64 -2.94 -127.61 21.73 -167.09 53.58 c -0.47 0.35 -1.18 0.94 -1.54 1.18 c -9.39 7.99 -10.45 22.09 -2.46 31.49 c 7.28 8.82 20.68 10.46 29.85 3.64 c 33.49 -26.92 98.47 -47.82 141.24 -45.35 h 80.62 c 12.35 0 22.33 9.98 22.33 22.31 c 0 12.35 -9.98 22.35 -22.33 22.35 h -80.62 c -32.55 -1.89 -82.96 13.26 -109.16 32.78 c -91.31 60.39 -116.45 183.31 -56.06 274.62 c 0.35 0.59 1.18 1.76 1.65 2.24 c 8.11 9.39 22.09 10.33 31.5 2.35 c 8.45 -7.06 10.22 -20.11 3.99 -29.15 c -46.77 -70.75 -27.27 -166.05 43.48 -212.82 c 20.33 -15.16 59.34 -26.91 84.6 -25.5 h 261.59 c 12.35 0 22.33 9.98 22.33 22.32 c 0 12.35 -9.98 22.33 -22.33 22.33 h -71.8 c -12.34 0 -22.32 9.99 -22.32 22.34 c 0 12.22 9.98 22.2 22.32 22.2 h 488.75 c 13.26 0 23.97 10.82 23.97 23.97 c 0 13.29 -10.71 23.98 -23.97 23.98 c -3.29 0.23 -8.7 -1.17 -11.53 -2.94 c -20.79 -13.04 -58.75 -19.98 -82.72 -15.27 c -73.21 10.1 -124.33 77.67 -114.23 150.88 c 7.16 52.06 -29.26 100.12 -81.32 107.29 c -19.62 3.88 -49.48 -2.82 -65.45 -14.8 c -8.58 -6 -21.03 -4.59 -28.21 3.05 c -0.82 0.7 -2.12 2.35 -2.71 3.3 c -6.69 10.22 -3.86 24.09 6.35 30.9 c 23.5 17.51 67.35 27.49 96.13 21.74 c 76.49 -10.58 129.98 -81.09 119.39 -157.59 c -6.82 -48.76 27.27 -93.78 76.15 -100.6 c 15.98 -3.15 41.25 1.54 55.11 10.23 c 8.11 5.06 23.51 8.94 33.04 8.47 c 37.83 0 68.5 -30.67 68.5 -68.64 c 0 -37.83 -30.67 -68.51 -68.5 -68.51 h -327.76 c -12.32 0 -22.33 -9.98 -22.33 -22.33 c 0 -12.34 10.01 -22.32 22.33 -22.32 h 127.16 c 12.34 0 22.32 -9.99 22.32 -22.21 c 0 -12.34 -9.98 -22.31 -22.32 -22.31 h -308.13 c -12.33 0 -22.31 -10 -22.31 -22.35 c 0 -12.33 9.98 -22.31 22.31 -22.31 h 508.73 c 9.03 -0.24 25.97 1.28 34.78 3.05 c 11.15 2.11 22.44 -5.04 25.37 -15.97 c 0.12 -0.49 0.35 -1.54 0.47 -2.13 c 2.12 -12.1 -5.99 -23.74 -18.08 -25.85 c -10.82 -2.12 -31.52 -3.99 -42.54 -3.64 h -373.94 c -12.34 0 -22.33 -10 -22.33 -22.35 c 0 -12.33 9.99 -22.31 22.33 -22.31 h 373.94 c 159.22 -0.23 289.64 128.43 291.53 287.67 c 0.14 12.21 10.12 22.09 22.22 21.98 h 0.35 c 12.34 -0.12 22.08 -10.23 21.97 -22.57"
					stroke-linecap="round" />
			</g>
		</g>
	</g>
</svg>